<svg width="67" height="67" viewBox="0 0 67 67" fill="none" xmlns="http://www.w3.org/2000/svg">
<path d="M67 0H0V67H67V0Z" fill="#CD531F"/>
<path d="M25.9228 48.5095C26.058 47.1209 26.1484 43.5364 26.1484 40.4898V26.4223C26.1484 23.3757 26.1037 19.1645 25.9676 17.8203H32.6438C38.4187 17.8203 41.396 21.2252 41.396 25.0781C41.396 28.1247 39.5018 30.4094 37.561 31.126C41.2599 32.2007 43.7414 35.3371 43.7414 39.4141C43.7414 44.4316 39.7712 48.5085 33.1854 48.5085H25.9219L25.9228 48.5095ZM29.8025 30.2752H33.2768C35.803 30.2752 37.7428 28.2589 37.7428 25.4817C37.7428 22.7045 35.4422 20.6429 32.3297 20.6429H29.8035V30.2752H29.8025ZM29.8025 45.5527H32.9151C37.0204 45.5527 40.0425 43.0439 40.0425 39.3252C40.0425 35.6065 37.2003 32.9635 33.411 32.9635H29.8016V45.5527H29.8025Z" fill="white"/>
</svg>
