<svg width="1390" height="255" viewBox="0 0 1390 255" fill="none" xmlns="http://www.w3.org/2000/svg">
<path d="M876.821 186.943L851.655 6.58789H844.315L756.104 198.87L667.893 6.58789H660.553L635.387 186.943C631.848 212.371 628.047 238.978 625.557 250.119H655.965C656.359 236.881 658.062 220.497 660.553 199.919L675.888 75.4005L752.958 250.119H759.25L836.32 75.4005L851.655 199.919C854.146 220.497 855.85 236.881 856.243 250.119H886.652C884.161 238.978 880.36 212.502 876.821 186.943Z" fill="#CD531F"/>
<path d="M4 250.119C5.04857 239.109 5.835 210.667 5.835 186.549V74.8763C5.835 50.7591 5.44181 17.3358 4.39324 6.58789H56.953C102.435 6.58789 125.897 33.5887 125.897 64.1284C125.897 88.2456 110.955 106.465 95.6191 112.101C124.717 120.62 144.378 145.524 144.378 177.899C144.378 217.744 113.052 250.119 61.1473 250.119H4ZM34.5397 105.416H61.9337C81.8566 105.416 97.0609 89.4252 97.0609 67.4052C97.0609 44.5987 78.973 29.0012 54.4626 29.0012H34.5397V105.416ZM34.5397 226.657H59.0501C91.4249 226.657 115.28 206.734 115.28 177.243C115.28 146.704 92.8666 126.781 62.9823 126.781H34.5397V226.657Z" fill="#CD531F"/>
<path d="M262.181 227.167H293.376C317.886 227.167 342.921 224.807 353.669 224.021V250.235C293.507 250.235 353.669 250.235 293.507 250.235H231.903C232.559 230.706 233.345 202.394 233.345 186.403V69.7494C233.345 45.239 232.69 17.0586 231.903 6.4418H290.623C315.134 6.4418 339.775 5.78643 350.785 5V31.7386C339.775 30.6901 315.265 30.2968 290.623 30.2968H262.181V107.891H290.23C314.479 107.891 334.664 107.498 345.674 106.843V133.188C334.664 132.533 314.347 132.14 290.23 132.14H262.181V227.167Z" fill="#CD531F"/>
<path d="M482.18 227.182H524.123C547.847 227.182 569.474 224.822 579.828 224.036V250.25C523.992 250.25 579.828 250.25 523.992 250.25H452.427C453.082 230.721 453.869 202.409 453.869 186.418V70.1577C453.869 45.6473 453.213 17.2047 452.427 6.58789H483.098C482.704 17.2047 482.049 45.6473 482.049 70.1577V227.182H482.18Z" fill="#CD531F"/>
<path d="M1128.45 250.092C1124.91 239.999 1119.41 226.368 1112.72 210.639L1095.29 169.09H1004.2L987.158 209.853C979.425 228.334 974.575 240.524 971.823 249.961H939.71C947.705 235.019 956.749 216.407 964.876 196.877L1047.19 6.42969H1055.18L1138.55 196.877C1147.33 216.407 1156.63 235.543 1164.76 249.961H1128.45V250.092ZM1049.55 57.9409L1013.63 145.89H1085.46L1049.55 57.9409Z" fill="#CD531F"/>
<path d="M1248 188.633C1248 212.75 1248.39 239.095 1249.44 250.105H1218.38C1219.43 239.095 1219.82 212.75 1219.82 188.633V70.2749C1219.82 46.1577 1219.43 17.3219 1218.38 6.70508H1268.32C1321.4 6.70508 1350.24 36.5894 1350.24 77.746C1350.24 115.757 1327.17 135.68 1303.18 143.544C1328.61 175.525 1358.36 223.498 1385.89 250.236H1347.22C1327.69 224.677 1298.73 184.176 1278.54 148.525C1274.35 149.18 1270.81 149.18 1267.01 149.18H1248V188.633ZM1248 127.815H1270.68C1300.04 127.815 1321.27 107.892 1321.27 78.4013C1321.27 53.1045 1303.44 29.6426 1267.14 29.6426H1248V127.815Z" fill="#CD531F"/>
</svg>
