<svg width="135" height="29" viewBox="0 0 135 29" fill="none" xmlns="http://www.w3.org/2000/svg">
<path d="M34.5135 28.9861C30.4324 28.9861 27.143 27.6857 24.6453 25.0847C22.1454 22.4589 20.8957 19.0164 20.8965 14.7575C20.8971 10.4985 22.1467 7.05605 24.6453 4.43021C27.1451 1.82928 30.4345 0.528809 34.5135 0.528809C38.5924 0.528809 41.8819 1.82928 44.3818 4.43021C46.8553 7.00625 48.0921 10.4487 48.0921 14.7575C48.0921 19.0663 46.8553 22.5087 44.3818 25.0847C41.8825 27.6863 38.5932 28.9869 34.5135 28.9861ZM26.2944 14.7575C26.2944 17.7412 27.0469 20.0999 28.552 21.8334C30.057 23.5668 32.0441 24.4339 34.5135 24.4347C37.0126 24.4347 39.0144 23.5676 40.5188 21.8334C41.9975 20.1255 42.7369 17.7668 42.7369 14.7575C42.7369 11.7481 41.9978 9.38943 40.5199 7.68156C39.0148 5.94737 37.0126 5.08027 34.5135 5.08027C32.0392 5.08027 30.0502 5.94737 28.5467 7.68156C27.043 9.41576 26.2923 11.7744 26.2944 14.7575Z" fill="white"/>
<path d="M73.2906 28.3747H67.4005L60.6652 18.1616H55.8106V28.3747H50.6475V1.14062H62.7722C65.7561 1.14062 68.1082 1.89921 69.8289 3.41636C71.5496 4.93351 72.4089 6.9673 72.4067 9.5177C72.4067 11.5316 71.8521 13.2462 70.7426 14.6616C69.6333 16.077 68.0716 17.0398 66.0577 17.55L73.2906 28.3747ZM62.5097 5.3868H55.8106V13.9923H62.5043C63.9581 13.9923 65.1056 13.597 65.9467 12.8064C66.7879 12.0158 67.2088 10.9705 67.2095 9.67035C67.2095 8.37023 66.7886 7.33092 65.9467 6.55242C65.105 5.77392 63.9575 5.38539 62.5043 5.3868H62.5097Z" fill="white"/>
<path d="M93.0856 14.1076L97.637 1.14062H105.135V28.3747H100.2V20.0744C100.2 14.9743 100.251 10.4734 100.353 6.57164C99.7925 8.48444 99.104 10.5755 98.2871 12.8448L92.7792 28.3747H88.5341L82.9836 12.8448C82.0143 10.0141 81.3383 7.95038 80.9555 6.65383C81.0572 10.5307 81.1081 15.006 81.1081 20.0798V28.38H76.1436V1.14062H83.64L88.3452 14.3766C88.6505 15.2697 89.4279 17.7304 90.6775 21.7588C91.493 18.928 92.2957 16.3777 93.0856 14.1076Z" fill="white"/>
<path d="M134.318 28.3747H128.848L126.706 22.3694H114.772L112.668 28.3747H107.352L117.712 1.14062H123.756L134.318 28.3747ZM117.368 15.0256L116.335 17.9706H125.138L124.07 15.0256C123.177 12.7562 122.054 9.64508 120.704 5.69209C119.627 8.85519 118.516 11.9664 117.368 15.0256Z" fill="white"/>
<path d="M19.4891 1.14062V5.76894H5.41416V13.4853H18.2231V18.1125H5.41416V28.3757H0.25V1.14062H19.4891Z" fill="white"/>
</svg>
