<svg width="122" height="27" viewBox="0 0 122 27" fill="none" xmlns="http://www.w3.org/2000/svg">
<g clip-path="url(#clip0_1372_6267)">
<mask id="mask0_1372_6267" style="mask-type:luminance" maskUnits="userSpaceOnUse" x="0" y="0" width="122" height="27">
<path d="M121.5 0.5H0V26.3284H121.5V0.5Z" fill="white"/>
</mask>
<g mask="url(#mask0_1372_6267)">
<path d="M31.052 26.3151C27.3534 26.3151 24.3724 25.1366 22.1088 22.7794C19.8432 20.3997 18.7107 17.28 18.7114 13.4203C18.712 9.5605 19.8445 6.44077 22.1088 4.06108C24.3743 1.70396 27.3553 0.525391 31.052 0.525391C34.7486 0.525391 37.7297 1.70396 39.9952 4.06108C42.2369 6.39564 43.3577 9.51536 43.3577 13.4203C43.3577 17.3252 42.2369 20.4449 39.9952 22.7794C37.7302 25.1372 34.7492 26.3158 31.052 26.3151ZM23.6033 13.4203C23.6033 16.1243 24.2853 18.2619 25.6493 19.8329C27.0133 21.4038 28.8141 22.1896 31.052 22.1903C33.3169 22.1903 35.131 21.4045 36.4943 19.8329C37.8344 18.2851 38.5045 16.1475 38.5045 13.4203C38.5045 10.693 37.8347 8.55542 36.4953 7.00765C35.1313 5.43602 33.3169 4.6502 31.052 4.6502C28.8097 4.6502 27.0071 5.43602 25.6445 7.00765C24.2818 8.57928 23.6014 10.7168 23.6033 13.4203Z" fill="#333130"/>
<path d="M66.1941 25.7612H60.8562L54.7522 16.5055H50.3527V25.7612H45.6736V1.08008H56.6618C59.3659 1.08008 61.4976 1.76755 63.057 3.14248C64.6164 4.51742 65.3951 6.36056 65.3932 8.67189C65.3932 10.497 64.8905 12.0509 63.885 13.3336C62.8797 14.6163 61.4644 15.4889 59.6393 15.9513L66.1941 25.7612ZM56.4238 4.92822H50.3527V12.7271H56.419C57.7365 12.7271 58.7764 12.3688 59.5387 11.6523C60.301 10.9358 60.6825 9.98847 60.6831 8.81022C60.6831 7.63198 60.3017 6.6901 59.5387 5.98458C58.7759 5.27905 57.7359 4.92694 56.419 4.92822H56.4238Z" fill="#333130"/>
<path d="M84.1329 12.8315L88.2577 1.08008H95.0525V25.7612H90.5804V18.239C90.5804 13.617 90.6265 9.538 90.7187 6.00199C90.2111 7.73549 89.5872 9.63054 88.8469 11.6871L83.8553 25.7612H80.0081L74.9779 11.6871C74.0995 9.12171 73.4869 7.25149 73.1399 6.07648C73.2321 9.58991 73.2782 13.6458 73.2782 18.2439V25.7661H68.7791V1.08008H75.5728L79.8369 13.0753C80.1136 13.8847 80.8181 16.1147 81.9506 19.7655C82.6896 17.2001 83.4171 14.8888 84.1329 12.8315Z" fill="#333130"/>
<path d="M121.5 25.7612H116.543L114.602 20.3189H103.787L101.88 25.7612H97.0615L106.451 1.08008H111.928L121.5 25.7612ZM106.139 13.6635L105.203 16.3324H113.181L112.213 13.6635C111.404 11.6069 110.386 8.78733 109.162 5.20489C108.186 8.07148 107.179 10.891 106.139 13.6635Z" fill="#333130"/>
<path d="M17.4356 1.08008V5.27454H4.68007V12.2676H16.2884V16.461H4.68007V25.7622H0V1.08008H17.4356Z" fill="#333130"/>
</g>
</g>
<defs>
<clipPath id="clip0_1372_6267">
<rect width="122" height="27" fill="white"/>
</clipPath>
</defs>
</svg>
