<svg width="20" height="22" viewBox="0 0 20 22" fill="none" xmlns="http://www.w3.org/2000/svg">
<path d="M10.002 21.7495C9.00195 21.7495 10.185 20.1705 5.25495 17.7145C4.98486 17.5797 4.72276 17.4295 4.46995 17.2645C2.01695 15.6685 0.501953 12.7495 0.501953 9.60751C0.501953 4.43951 4.75495 0.249512 10.002 0.249512C15.249 0.249512 19.502 4.43951 19.502 9.60651C19.502 13.0685 17.658 16.2635 14.757 17.7105C9.82195 20.1695 11.002 21.7495 10.002 21.7495ZM10.002 13.3595C12.113 13.3595 13.802 11.6875 13.802 9.65451C13.802 7.62151 12.113 5.94951 10.002 5.94951C7.89095 5.94951 6.20195 7.62151 6.20195 9.65451C6.20195 11.6875 7.89095 13.3595 10.002 13.3595Z" fill="white"/>
</svg>
