<svg width="22" height="32" viewBox="0 0 22 32" fill="none" xmlns="http://www.w3.org/2000/svg">
<path d="M7.27955 9.09555L5.39558 18.2078V18.5231L11.6746 21.6763V22.3069C11.6746 24.1988 11.6746 26.7213 12.6164 28.6132C12.6164 28.6132 13.5582 30.5051 14.814 30.5051M11.0467 18.2078L12.3053 12.0973C12.6278 10.5318 11.4376 9.06366 9.84588 9.06366H7.90719C4.98203 9.06366 2.45909 11.127 1.86644 14.0039L1.19531 17.2619M14.1861 13.7157C16.0698 15.37 18.5814 16.0006 21.093 16.0006M7.90694 22.9374C6.65137 26.7213 4.13947 29.2438 1 29.2438M11.4862 6.54114C11.4862 6.54114 9.47693 5.27988 9.47693 3.7033C9.47693 2.48429 10.4608 1.49609 11.6746 1.49609C12.8883 1.49609 13.8668 2.48429 13.8668 3.7033C13.8668 5.27988 11.8629 6.54114 11.8629 6.54114H11.4862Z" stroke="#CD531F" stroke-width="1.8"/>
</svg>
