<svg width="32" height="32" viewBox="0 0 32 32" fill="none" xmlns="http://www.w3.org/2000/svg">
<path d="M5.33349 20.666H8.00016M10.6668 20.666H21.3335M24.0001 20.666H26.6668M4.16963 14.1859C5.93744 14.5527 10.3595 15.3327 16.0001 15.3327C21.6407 15.3327 26.0627 14.5527 27.8305 14.1859M4.16963 14.1859C5.37123 11.4754 6.00016 8.53142 6.00016 5.53992V4.66602H26.0001V5.54018C26.0001 8.53159 26.6291 11.4755 27.8305 14.1859M4.16963 14.1859C3.67945 15.2916 3.09397 16.3584 2.41701 17.3739L2 17.9993V27.3327H4.99996L5.09996 27.1727C6.07456 25.6133 7.78373 24.666 9.62261 24.666H22.3775C24.2164 24.666 25.9256 25.6133 26.9001 27.1727L27.0001 27.3327H30.0001V17.9993L29.5831 17.3737C28.9061 16.3584 28.3207 15.2916 27.8305 14.1859" stroke="#CD531F" stroke-width="1.8"/>
</svg>
