<svg width="102" height="19" viewBox="0 0 102 19" fill="none" xmlns="http://www.w3.org/2000/svg">
<path d="M64.4235 13.543L62.5659 0.230469H62.0242L55.513 14.4234L49.0019 0.230469H48.4601L46.6026 13.543C46.3413 15.4199 46.0608 17.3838 45.877 18.2062H48.1215C48.1505 17.2291 48.2763 16.0197 48.4601 14.5008L49.5921 5.30973L55.2808 18.2062H55.7452L61.434 5.30973L62.5659 14.5008C62.7498 16.0197 62.8755 17.2291 62.9046 18.2062H65.1491C64.9653 17.3838 64.6847 15.4295 64.4235 13.543Z" fill="#CD531F"/>
<path d="M-0.00292969 18.2062C0.0744685 17.3935 0.132517 15.2941 0.132517 13.5139V5.27103C0.132517 3.49087 0.103495 1.0238 0.0260964 0.230469H3.90568C7.26283 0.230469 8.99462 2.22348 8.99462 4.4777C8.99462 6.25786 7.89169 7.60265 6.75974 8.01866C8.90754 8.64752 10.3588 10.4857 10.3588 12.8754C10.3588 15.8165 8.04649 18.2062 4.21527 18.2062H-0.00292969ZM2.2513 7.52525H4.27332C5.74389 7.52525 6.86616 6.34493 6.86616 4.71957C6.86616 3.03616 5.53104 1.88486 3.72186 1.88486H2.2513V7.52525ZM2.2513 16.4744H4.06048C6.45015 16.4744 8.21096 15.0039 8.21096 12.827C8.21096 10.5728 6.55657 9.10224 4.35072 9.10224H2.2513V16.4744Z" fill="#CD531F"/>
<path d="M19.0542 16.512H21.3568C23.166 16.512 25.0139 16.3379 25.8072 16.2798V18.2148C21.3665 18.2148 25.8072 18.2148 21.3665 18.2148H16.8193C16.8677 16.7732 16.9258 14.6835 16.9258 13.5032V4.89262C16.9258 3.08344 16.8774 1.00336 16.8193 0.219704H21.1536C22.9628 0.219704 24.7817 0.17133 25.5944 0.113281V2.08694C24.7817 2.00954 22.9725 1.98051 21.1536 1.98051H19.0542V7.70798H21.1246C22.9144 7.70798 24.4044 7.67896 25.217 7.63058V9.57522C24.4044 9.52684 22.9048 9.49781 21.1246 9.49781H19.0542V16.512Z" fill="#CD531F"/>
<path d="M35.2938 16.5131H38.3898C40.1409 16.5131 41.7372 16.339 42.5015 16.2809V18.2159C38.3801 18.2159 42.5015 18.2159 38.3801 18.2159H33.0977C33.146 16.7743 33.2041 14.6846 33.2041 13.5043V4.92274C33.2041 3.11355 33.1557 1.01413 33.0977 0.230469H35.3616C35.3325 1.01413 35.2842 3.11355 35.2842 4.92274V16.5131H35.2938Z" fill="#CD531F"/>
<path d="M82.9981 18.2042C82.7369 17.4592 82.3305 16.453 81.8371 15.2921L80.5504 12.2251H73.8264L72.5687 15.234C71.9979 16.5982 71.6399 17.4979 71.4367 18.1945H69.0664C69.6566 17.0916 70.3241 15.7177 70.924 14.2762L76.9997 0.21875H77.5899L83.743 14.2762C84.3912 15.7177 85.0782 17.1303 85.678 18.1945H82.9981V18.2042ZM77.1739 4.02094L74.523 10.5127H79.8248L77.1739 4.02094Z" fill="#CD531F"/>
<path d="M91.8222 13.6678C91.8222 15.448 91.8513 17.3926 91.9287 18.2053H89.6357C89.7131 17.3926 89.7422 15.448 89.7422 13.6678V4.93152C89.7422 3.15137 89.7131 1.02291 89.6357 0.239258H93.3218C97.2401 0.239258 99.3686 2.44511 99.3686 5.48299C99.3686 8.28867 97.6658 9.75924 95.8953 10.3397C97.7722 12.7004 99.9684 16.2413 102 18.215H99.146C97.7045 16.3284 95.5664 13.3389 94.0765 10.7074C93.7669 10.7557 93.5057 10.7557 93.2251 10.7557H91.8222V13.6678ZM91.8222 9.17875H93.496C95.6631 9.17875 97.2304 7.70819 97.2304 5.53136C97.2304 3.66413 95.9147 1.93234 93.2348 1.93234H91.8222V9.17875Z" fill="#CD531F"/>
</svg>
