<svg width="20" height="20" viewBox="0 0 20 20" fill="none" xmlns="http://www.w3.org/2000/svg">
<path d="M14.6526 17.2626C8.43039 16.0954 3.35915 9.57872 2.73828 5.34832L5.17254 2.81612C5.21095 2.77616 5.27694 2.78414 5.30473 2.83211L7.29465 6.2676C7.45259 6.54027 7.44322 6.87872 7.27043 7.14223L6.81488 7.83697C6.68932 8.02845 6.67229 8.2726 6.78293 8.47307C7.73875 10.2051 9.64177 12.1782 11.5126 13.2027C11.712 13.3119 11.9542 13.2955 12.1451 13.172L12.8495 12.716C13.1126 12.5456 13.449 12.5374 13.7202 12.6946L17.163 14.6902C17.2109 14.7179 17.2189 14.7838 17.1791 14.8222L14.6526 17.2626Z" stroke="#CD531F" stroke-width="0.833333"/>
</svg>
