<svg width="90" height="81" viewBox="0 0 90 81" fill="none" xmlns="http://www.w3.org/2000/svg">
<g clip-path="url(#clip0_1372_12551)">
<path d="M37.0003 59.6673V50.334C37.0003 45.9156 33.4186 42.334 29.0003 42.334H27.667V71.6673C32.8217 71.6673 37.0003 75.846 37.0003 81.0007M65.0003 81.0007V50.334C65.0003 45.9156 61.4187 42.334 57.0003 42.334H54.5969M55.667 49.0007V46.334C55.667 41.9157 52.0854 38.334 47.667 38.334H46.3337V49.0007V18.334H45.0003C40.5819 18.334 37.0003 21.9157 37.0003 26.334V51.6673" stroke="white" stroke-width="2.66667"/>
</g>
<g clip-path="url(#clip1_1372_12551)">
<path d="M90.25 32H68.9167M78.0596 21.3332C78.0596 22.4618 79.1767 24.1483 80.3065 25.5653C81.7612 27.3896 83.498 28.984 85.4903 30.2005C86.9817 31.1117 88.794 31.9872 90.2503 31.9872M78.0593 42.6667C78.0593 41.5381 79.1764 39.8517 80.3063 38.4347C81.7609 36.6104 83.4977 35.016 85.49 33.7992C86.9815 32.8883 88.7937 32.0128 90.25 32.0128M26.25 60H42.25C51.8229 60 59.5833 52.2397 59.5833 42.6667V25.3333H58.25C54.5681 25.3333 51.5833 28.3181 51.5833 32V42.6667V16C51.5833 12.3181 48.5986 9.33333 44.9167 9.33333H43.3445M27.5833 42.6667V9.33333H28.9167C32.5986 9.33333 35.5833 12.3181 35.5833 16V32V4H36.8112C40.4931 4 43.4779 6.98477 43.4779 10.6667V32" stroke="white" stroke-width="2.66667"/>
</g>
<g clip-path="url(#clip2_1372_12551)">
<path d="M-0.250002 32H21.0833M11.9404 21.3332C11.9404 22.4618 10.8233 24.1483 9.69346 25.5653C8.2388 27.3896 6.502 28.984 4.50973 30.2005C3.01827 31.1117 1.206 31.9872 -0.250266 31.9872M11.9407 42.6667C11.9407 41.5381 10.8236 39.8517 9.69373 38.4347C8.23907 36.6104 6.50226 35.016 4.51 33.7992C3.01853 32.8883 1.20626 32.0128 -0.250002 32.0128M63.75 60H47.75C38.1771 60 30.4167 52.2397 30.4167 42.6667V25.3333H31.75C35.4319 25.3333 38.4167 28.3181 38.4167 32V42.6667V16C38.4167 12.3181 41.4014 9.33333 45.0833 9.33333H46.6555M62.4167 42.6667V9.33333H61.0833C57.4014 9.33333 54.4167 12.3181 54.4167 16V32V4H53.1888C49.5069 4 46.5221 6.98477 46.5221 10.6667V32" stroke="white" stroke-width="2.66667"/>
</g>
<defs>
<clipPath id="clip0_1372_12551">
<rect width="64" height="64" fill="white" transform="translate(13 17)"/>
</clipPath>
<clipPath id="clip1_1372_12551">
<rect width="21" height="64" fill="white" transform="translate(69)"/>
</clipPath>
<clipPath id="clip2_1372_12551">
<rect width="21" height="64" fill="white" transform="matrix(-1 0 0 1 21 0)"/>
</clipPath>
</defs>
</svg>
